<svg viewBox="0 0 48 48" xmlns="http://www.w3.org/2000/svg"><g fill="none" stroke="#000" stroke-linecap="round" stroke-linejoin="round"><rect height="26.5581" rx="6.7532" width="35.7327" x="6.1336" y="9.4032"/><path d="m17.4835 4.5 2.9243 4.9032"/><path d="m13.2594 21.6849 6.8235-2.7257"/><path d="m30.5165 4.5-2.9243 4.9032"/><path d="m34.7406 21.6849-6.8235-2.7257"/><path d="m29.0544 24.9161c-.5827 1.4721-1.1508 2.54-2.5273 2.54-1.074 0-1.666-.4976-2.5271-1.8363-.8611 1.3387-1.4531 1.8363-2.5271 1.8363-1.3765 0-1.9446-1.0682-2.5273-2.54"/><path d="m25.9676 35.9613v2.033s8.6917.2889 8.6917 5.5057h-21.3186c0-5.2168 8.6917-5.5057 8.6917-5.5057v-2.033"/></g></svg>